<?xml version="1.0" encoding="UTF-8" standalone="no"?>
<svg xmlns:dc="http://purl.org/dc/elements/1.1/" xmlns:cc="http://creativecommons.org/ns#" xmlns:rdf="http://www.w3.org/1999/02/22-rdf-syntax-ns#" xmlns:svg="http://www.w3.org/2000/svg" xmlns="http://www.w3.org/2000/svg" xmlns:sodipodi="http://sodipodi.sourceforge.net/DTD/sodipodi-0.dtd" xmlns:inkscape="http://www.inkscape.org/namespaces/inkscape" width="32px" height="32px" viewBox="0 0 32 32.000001" id="svg2" version="1.1" inkscape:version="0.91 r13725" sodipodi:docname="62 bank banking finance government safe secure money.svg">
  <defs id="defs4">
    <pattern y="0" x="0" height="6" width="6" patternUnits="userSpaceOnUse" id="EMFhbasepattern"/>
  </defs>
  <sodipodi:namedview id="base" pagecolor="#ffffff" bordercolor="#666666" borderopacity="1.0" inkscape:pageopacity="0.0" inkscape:pageshadow="2" inkscape:zoom="16" inkscape:cx="18.208244" inkscape:cy="15.924317" inkscape:document-units="px" inkscape:current-layer="layer1" showgrid="true" units="px" inkscape:snap-bbox="true" inkscape:bbox-paths="true" inkscape:bbox-nodes="true" inkscape:snap-bbox-edge-midpoints="true" inkscape:snap-bbox-midpoints="true" inkscape:window-width="1366" inkscape:window-height="715" inkscape:window-x="-8" inkscape:window-y="-8" inkscape:window-maximized="1" showguides="false" inkscape:snap-global="true">
    <inkscape:grid type="xygrid" id="grid3364"/>
  </sodipodi:namedview>
  
  <g inkscape:label="Layer 1" inkscape:groupmode="layer" id="layer1" transform="translate(0,-1020.3622)">
    <path style="color:#000000;font-style:normal;font-variant:normal;font-weight:normal;font-stretch:normal;font-size:medium;line-height:normal;font-family:sans-serif;text-indent:0;text-align:start;text-decoration:none;text-decoration-line:none;text-decoration-style:solid;text-decoration-color:#000000;letter-spacing:normal;word-spacing:normal;text-transform:none;direction:ltr;block-progression:tb;writing-mode:lr-tb;baseline-shift:baseline;text-anchor:start;white-space:normal;clip-rule:nonzero;display:inline;overflow:visible;visibility:visible;opacity:1;isolation:auto;mix-blend-mode:normal;color-interpolation:sRGB;color-interpolation-filters:linearRGB;solid-color:#000000;solid-opacity:1;fill:#000000;fill-opacity:1;fill-rule:nonzero;stroke:none;stroke-width:1;stroke-linecap:round;stroke-linejoin:round;stroke-miterlimit:4;stroke-dasharray:none;stroke-dashoffset:0;stroke-opacity:1;color-rendering:auto;image-rendering:auto;shape-rendering:auto;text-rendering:auto;enable-background:accumulate" d="M 15.986328 0.001953125 A 0.50004997 0.50004997 0 0 0 15.728516 0.078125 L 0.22851562 10.078125 A 0.50004997 0.50004997 0 0 0 0.5 11 L 2.09375 11 C 2.0371223 11.157236 2 11.324379 2 11.5 C 2 12.146758 2.4210062 12.697744 3 12.90625 L 3 26.091797 C 2.4210062 26.300326 2 26.853321 2 27.5 C 2 27.676292 2.0367215 27.842263 2.09375 28 L 2 28 C 0.90065187 28 0 28.9007 0 30 C 0 31.0994 0.90065187 32 2 32 L 30 32 C 31.099348 32 32 31.0994 32 30 C 32 28.9007 31.099348 28 30 28 L 29.90625 28 C 29.963278 27.842263 30 27.676292 30 27.5 C 30 26.853321 29.578994 26.300326 29 26.091797 L 29 12.90625 C 29.578994 12.697744 30 12.146758 30 11.5 C 30 11.324379 29.962878 11.157236 29.90625 11 L 31.5 11 A 0.50004997 0.50004997 0 0 0 31.771484 10.080078 L 16.271484 0.080078125 A 0.50004997 0.50004997 0 0 0 15.986328 0.001953125 z M 16 1.0976562 L 29.798828 10 L 2.2011719 10 L 16 1.0976562 z M 16 4 C 14.901353 4 14 4.9014 14 6 C 14 7.0987 14.901353 8 16 8 C 17.098647 8 18 7.0987 18 6 C 18 4.9014 17.098647 4 16 4 z M 16 5 C 16.558207 5 17 5.4418 17 6 C 17 6.5582 16.558207 7 16 7 C 15.441793 7 15 6.5582 15 6 C 15 5.4418 15.441793 5 16 5 z M 3.5 11 L 5.5 11 C 5.7856486 11 6 11.2144 6 11.5 C 6 11.7857 5.7856486 12 5.5 12 L 3.5 12 C 3.2143514 12 3 11.7857 3 11.5 C 3 11.2144 3.2143514 11 3.5 11 z M 6.90625 11 L 8.09375 11 C 8.0371223 11.157236 8 11.324379 8 11.5 C 8 12.146758 8.4210062 12.697744 9 12.90625 L 9 26.091797 C 8.4210062 26.300326 8 26.853321 8 27.5 C 8 27.676292 8.0367215 27.842263 8.09375 28 L 6.90625 28 C 6.9632785 27.842263 7 27.676292 7 27.5 C 7 26.853321 6.5789938 26.300326 6 26.091797 L 6 12.90625 C 6.5789938 12.697744 7 12.146758 7 11.5 C 7 11.324379 6.9628777 11.157236 6.90625 11 z M 9.5 11 L 11.5 11 C 11.785649 11 12 11.2144 12 11.5 C 12 11.7857 11.785649 12 11.5 12 L 9.5 12 C 9.2143514 12 9 11.7857 9 11.5 C 9 11.2144 9.2143514 11 9.5 11 z M 12.90625 11 L 19.09375 11 C 19.037122 11.157236 19 11.324379 19 11.5 C 19 12.146758 19.421006 12.697744 20 12.90625 L 20 26.091797 C 19.421006 26.300326 19 26.853321 19 27.5 C 19 27.676292 19.036722 27.842263 19.09375 28 L 12.90625 28 C 12.963278 27.842263 13 27.676292 13 27.5 C 13 26.853321 12.578994 26.300326 12 26.091797 L 12 12.90625 C 12.578994 12.697744 13 12.146758 13 11.5 C 13 11.324379 12.962878 11.157236 12.90625 11 z M 20.5 11 L 22.5 11 C 22.785649 11 23 11.2144 23 11.5 C 23 11.7857 22.785649 12 22.5 12 L 20.5 12 C 20.214351 12 20 11.7857 20 11.5 C 20 11.2144 20.214351 11 20.5 11 z M 23.90625 11 L 25.09375 11 C 25.037122 11.157236 25 11.324379 25 11.5 C 25 12.146758 25.421006 12.697744 26 12.90625 L 26 26.091797 C 25.421006 26.300326 25 26.853321 25 27.5 C 25 27.676292 25.036722 27.842263 25.09375 28 L 23.90625 28 C 23.963278 27.842263 24 27.676292 24 27.5 C 24 26.853321 23.578994 26.300326 23 26.091797 L 23 12.90625 C 23.578994 12.697744 24 12.146758 24 11.5 C 24 11.324379 23.962878 11.157236 23.90625 11 z M 26.5 11 L 28.5 11 C 28.785649 11 29 11.2144 29 11.5 C 29 11.7857 28.785649 12 28.5 12 L 26.5 12 C 26.214351 12 26 11.7857 26 11.5 C 26 11.2144 26.214351 11 26.5 11 z M 4 13 L 5 13 L 5 26 L 4 26 L 4 13 z M 10 13 L 11 13 L 11 26 L 10 26 L 10 13 z M 21 13 L 22 13 L 22 26 L 21 26 L 21 13 z M 27 13 L 28 13 L 28 26 L 27 26 L 27 13 z M 13.527344 16 L 13.527344 16.009766 L 13.503906 16.009766 L 13.503906 17.009766 L 14.53125 17.009766 C 15.465534 17.009766 15.936078 17.4512 16.105469 18 L 13.527344 18 L 13.527344 19 L 16.105469 19 C 15.935622 19.5487 15.464591 19.992188 14.53125 19.992188 L 14.210938 19.992188 L 14.207031 19.992188 L 14.203125 19.992188 L 13.503906 19.992188 L 13.503906 20.992188 L 13.798828 20.992188 L 16.849609 24 L 17.552734 23.289062 L 15.158203 20.925781 C 16.242163 20.698181 16.938776 19.8907 17.130859 19 L 18.496094 19 L 18.496094 18 L 17.130859 18 C 17.053569 17.6404 16.886749 17.2999 16.652344 17 L 18.496094 17 L 18.496094 16 L 13.527344 16 z M 3.5 27 L 5.5 27 C 5.7856486 27 6 27.2144 6 27.5 C 6 27.7857 5.7856486 28 5.5 28 L 3.5 28 C 3.2143514 28 3 27.7857 3 27.5 C 3 27.2144 3.2143514 27 3.5 27 z M 9.5 27 L 11.5 27 C 11.785649 27 12 27.2144 12 27.5 C 12 27.7857 11.785649 28 11.5 28 L 9.5 28 C 9.2143514 28 9 27.7857 9 27.5 C 9 27.2144 9.2143514 27 9.5 27 z M 20.5 27 L 22.5 27 C 22.785649 27 23 27.2144 23 27.5 C 23 27.7857 22.785649 28 22.5 28 L 20.5 28 C 20.214351 28 20 27.7857 20 27.5 C 20 27.2144 20.214351 27 20.5 27 z M 26.5 27 L 28.5 27 C 28.785649 27 29 27.2144 29 27.5 C 29 27.7857 28.785649 28 28.5 28 L 26.5 28 C 26.214351 28 26 27.7857 26 27.5 C 26 27.2144 26.214351 27 26.5 27 z M 2 29 L 30 29 C 30.562642 29 31 29.4374 31 30 C 31 30.5627 30.562642 31 30 31 L 2 31 C 1.4373577 31 1 30.5627 1 30 C 1 29.4374 1.4373577 29 2 29 z " transform="translate(0,1020.3622)" id="rect6985"/>
  </g>

	
	
	<metadata>
		<rdf:RDF xmlns:rdf="http://www.w3.org/1999/02/22-rdf-syntax-ns#" xmlns:rdfs="http://www.w3.org/2000/01/rdf-schema#" xmlns:dc="http://purl.org/dc/elements/1.1/">
			<rdf:Description about="https://iconscout.com/legal#licenses" dc:title="Bank, Banking, Finance, Government, Safe, Secure, Money" dc:description="Bank, Banking, Finance, Government, Safe, Secure, Money" dc:publisher="Iconscout" dc:date="2016-12-14" dc:format="image/svg+xml" dc:language="en">
				<dc:creator>
					<rdf:Bag>
						<rdf:li>Chamestudio</rdf:li>
					</rdf:Bag>
				</dc:creator>
			</rdf:Description>
		</rdf:RDF>
    </metadata></svg>
